{"title":"Prisoners 2013 480p HDRip XviD AC3 5.1 titler","uid":9185416,"size":1849211178,"categoryP":"video","categoryS":"movies","magnet":"?xt=urn:btih:15740d14c54dd282eff3db8b1c4a46f6829952aa&amp;dn=Prisoners+2013+480p+HDRip+XviD+AC3+5.1+titler&amp;tr=udp%3A%2F%2Ftracker.openbittorrent.com%3A80&amp;tr=udp%3A%2F%2Fopen.demonii.com%3A1337&amp;tr=udp%3A%2F%2Ftracker.coppersurfer.tk%3A6969&amp;tr=udp%3A%2F%2Fexodus.desync.com%3A6969","seeders":1,"leechers":0,"uploader":"movieZ.freak","files":4,"time":1384292530,"description":"SOURCE: Prisoners 2013 720p WEB-DL H264-PublicHD\n\n &lt;a href=&quot;\nhttp://www.imdb.com/title/tt1392214/&quot; rel=&quot;nofollow&quot; target=&quot;_NEW&quot;&gt;\nhttp://www.imdb.com/title/tt1392214/&lt;/a&gt;\n\n &lt;a href=&quot;\nhttp://www.rottentomatoes.com/m/prisoners_2013/&quot; rel=&quot;nofollow&quot; target=&quot;_NEW&quot;&gt;\nhttp://www.rottentomatoes.com/m/prisoners_2013/&lt;/a&gt;\n\n &lt;a href=&quot;\nhttp://en.wikipedia.org/wiki/Prisoners_%282013_film%29&quot; rel=&quot;nofollow&quot; target=&quot;_NEW&quot;&gt;\nhttp://en.wikipedia.org/wiki/Prisoners_%282013_film%29&lt;/a&gt;\n\n\n\n- SAMPLE: Yes\n\n- SUBTITLE: English\n\n- LANGUAGE: English\n\n\n\nSCREENSHOTS:\n------------------------- &lt;a href=&quot;\nhttp://someimage.com/pKgf&quot; rel=&quot;nofollow&quot; target=&quot;_NEW&quot;&gt;\nhttp://someimage.com/pKgf&lt;/a&gt;\n\n\n\nDIRECTOR: Denis Villeneuve\n\n\n\nCAST: Hugh Jackman, Jake Gyllenhaal, Viola Davis, Maria Bello, Terrence Howard, Melissa Leo, Paul Dano,...\n\n\n\nPLOT:\n--------\nPrisoners, from Oscar nominated director Denis Villeneuve, stars Hugh Jackman and Jake Gyllenhaal in a story that poses the question: How far would you go to protect your child? Keller Dover (Jackman) is facing every parent's worst nightmare. His six-year-old daughter, Anna, is missing, together with her young friend, Joy, and as minutes turn to hours, panic sets in. The only lead is a dilapidated RV that had earlier been parked on their street. Heading the investigation, Detective Loki (Gyllenhaal) arrests its driver, Alex Jones (Paul Dano), but a lack of evidence forces the only suspect's release. Knowing his child's life is at stake, the frantic Dover decides he has no choice but to take matters into his own hands. But just how far will this desperate father go to protect his family?\n\n\n\nAVI INFO:\n\n********************************************\n\n- Duration: 2h 33mn\n\n- Bit rate: 1191 Kbps\n\n- Res: 854 x 480\n\n- Aspect Ratio: 16:9\n\n- Codec: XviD 65\n\n- Audio: AC3 6 channels, bit rate 384 Kbps\n\n********************************************\n\n\nGeneral\n----------------\nFormat : AVI\nFormat/Info : Audio Video Interleave\nFile size : 1.70 GiB\nDuration : 2h 33mn\nOverall bit rate : 1585 Kbps\nWriting library : VirtualDub build 35491\n\n\nVideo\n-------------\nFormat : MPEG-4 Visual\nFormat profile : Advanced Simple@L5\nFormat settings, BVOP : 2\nFormat settings, QPel : No\nFormat settings, GMC : No warppoints\nFormat settings, Matrix : Default (H.263)\nCodec ID : XVID\nCodec ID/Hint : XviD\nDuration : 2h 33mn\nBit rate : 1191 Kbps\nWidth : 854 pixels\nHeight : 480 pixels\nDisplay aspect ratio : 16:9\nFrame rate : 23.976 fps\nColor space : YUV\nChroma subsampling : 4:2:0\nBit depth : 8 bits\nScan type : Progressive\nCompression mode : Lossy\nBits/(Pixel*Frame) : 0.121\nStream size : 1.27 GiB (75%)\nWriting library : XviD 65\n\n\nAudio\n---------\nFormat : AC-3\nFormat/Info : Audio Coding 3\nMode extension : CM (complete main)\nFormat settings, Endianness : Big\nCodec ID : 2000\nDuration : 2h 33mn\nBit rate mode : Constant\nBit rate : 384 Kbps\nChannel(s) : 6 channels\nChannel positions : Front: L C R, Side: L R, LFE\nSampling rate : 48.0 KHz\nBit depth : 16 bits\nCompression mode : Lossy\nStream size : 421 MiB (24%)\nAlignment : Aligned on interleaves\nInterleave, duration : 42 ms (1.00 video frame)\nInterleave, preload duration : 512 ms","torrent":{"xt":"urn:btih:15740d14c54dd282eff3db8b1c4a46f6829952aa","amp;dn":"Prisoners+2013+480p+HDRip+XviD+AC3+5.1+titler","amp;tr":["udp%3A%2F%2Ftracker.openbittorrent.com%3A80","udp%3A%2F%2Fopen.demonii.com%3A1337","udp%3A%2F%2Ftracker.coppersurfer.tk%3A6969","udp%3A%2F%2Fexodus.desync.com%3A6969"],"infoHash":"15740d14c54dd282eff3db8b1c4a46f6829952aa","infoHashBuffer":{"type":"Buffer","data":[21,116,13,20,197,77,210,130,239,243,219,139,28,74,70,246,130,153,82,170]},"announce":[],"urlList":[]}}